<?xml version="1.0" encoding="utf-8"?>
<!-- Generator: Adobe Illustrator 19.0.0, SVG Export Plug-In . SVG Version: 6.00 Build 0)  -->
<svg version="1.1" id="Layer_1" xmlns="http://www.w3.org/2000/svg" xmlns:xlink="http://www.w3.org/1999/xlink" x="0px" y="0px"
	 viewBox="0 0 2834.6 2834.6" style="enable-background:new 0 0 2834.6 2834.6;" xml:space="preserve">
<style type="text/css">
	.st0{fill:none;stroke:#231F20;stroke-linecap:round;stroke-linejoin:round;}
	.st1{fill:none;stroke:#010101;stroke-miterlimit:10;}
</style>
<rect id="XMLID_29_" x="1203" y="199.9" class="st0" width="120.5" height="120.5"/>
<circle id="XMLID_11_" class="st1" cx="377.5" cy="246.6" r="30.9"/>
<circle id="XMLID_15_" class="st0" cx="913.2" cy="423.7" r="11.3"/>
<circle id="XMLID_19_" class="st0" cx="732.5" cy="423.7" r="11.3"/>
<path id="XMLID_33_" class="st0" d="M146.7,421.9l-0.2-95.1l-0.1-1l128.2-218.8h205.8L609,325.8h286l101.5,172.8v62.6l0.2,0.4h-81.9
	c0-5-4-9-9-9s-9,4-9,9v51H613.3v-51c0-5-4-9-9-9s-9,4-9,9h-49.8c0-5-4-9-9-9s-9,4-9,9v51H244l0-51c0-5-4-9-9-9s-9,4-9,9h-78.8h-0.8
	l0.2-89.7h230.2c0,5,4,9,9,9c5,0,9-4,9-9l0-51c0-5-4-9-9-9s-9,4-9,9H146.6l-1.2-64L146.7,421.9z"/>
<circle id="XMLID_4_" class="st0" cx="1798.9" cy="437.3" r="11.3"/>
<circle id="XMLID_3_" class="st0" cx="1618.2" cy="437.3" r="11.3"/>
<path id="XMLID_2_" class="st0" d="M1032.3,435.5l-0.2-95.1l-0.1-1l128.2-218.8h205.8l128.5,218.8h286l101.5,172.8v62.6l0.2,0.4
	h-81.9c0-5-4-9-9-9c-5,0-9,4-9,9v51H1499v-51c0-5-4-9-9-9c-5,0-9,4-9,9h-49.8c0-5-4-9-9-9s-9,4-9,9v51h-283.5v-51c0-5-4-9-9-9
	s-9,4-9,9h-78.8h-0.8l0.2-89.7h230.2c0,5,4,9,9,9c5,0,9-4,9-9v-51c0-5-4-9-9-9c-5,0-9,4-9,9h-230.2l-1.2-64L1032.3,435.5z"/>
<path id="XMLID_13_" class="st0" d="M390.7,921.6h51c5,0,9-4,9-9s-4-9-9-9l0.1-196.8h1177.1l-0.7,196.2c-5,0-9,4-9,9c0,5,4,9,9,9
	l51,0c5,0,9-4,9-9c0-5-4-9-9-9l-0.2-196.8l202.7,0.6l-0.1,263.7l-132,199.1H322.3l-132-199.1l0.1-263.7h201.2l-1,196.8c-5,0-9,4-9,9
	C381.7,917.5,385.7,921.6,390.7,921.6z"/>
<g id="XMLID_117_">
	<g id="XMLID_1_">
		<path id="XMLID_9_" class="st0" d="M377.7,1356.9l0,247.5c-5,0-9,4-9,9s4,9,9,9h51c5,0,9-4,9-9s-4-9-9-9v-247.5c5,0,9-4,9-9
			c0-5-4-9-9-9l-51,0c-5,0-9,4-9,9C368.7,1352.8,372.7,1356.9,377.7,1356.9z"/>
		<path id="XMLID_5_" class="st0" d="M377.7,1726.2l0,247.5c-5,0-9,4-9,9s4,9,9,9h51c5,0,9-4,9-9s-4-9-9-9v-247.5c5,0,9-4,9-9
			s-4-9-9-9h-51c-5,0-9,4-9,9S372.7,1726.2,377.7,1726.2z"/>
		<path id="XMLID_10_" class="st0" d="M1605.7,1356.9v247.5c-5,0-9,4-9,9s4,9,9,9h51c5,0,9-4,9-9s-4-9-9-9v-247.5c5,0,9-4,9-9
			c0-5-4-9-9-9l-51,0c-5,0-9,4-9,9C1596.7,1352.8,1600.7,1356.9,1605.7,1356.9z"/>
		<path id="XMLID_8_" class="st0" d="M1605.7,1726.2v247.5c-5,0-9,4-9,9s4,9,9,9h51c5,0,9-4,9-9s-4-9-9-9l0-247.5c5,0,9-4,9-9
			s-4-9-9-9h-51c-5,0-9,4-9,9S1600.7,1726.2,1605.7,1726.2z"/>
	</g>
</g>
<g id="XMLID_53_">
	<polygon id="XMLID_99_" class="st0" points="308.7,2092.5 1726,2092.5 1858,1893.4 1858,1394.2 1726,1195.1 308.7,1195.1 
		176.7,1394.2 176.7,1893.4 	"/>
</g>
</svg>
